<?xml version="1.0" encoding="UTF-8" standalone="no"?>
<!DOCTYPE svg PUBLIC "-//W3C//DTD SVG 1.1//EN"
 "http://www.w3.org/Graphics/SVG/1.1/DTD/svg11.dtd">
<!-- Generated by graphviz version 2.36.0 (20140111.2315)
 -->
<!-- Title: models_diagram Pages: 1 -->
<svg width="698pt" height="226pt"
 viewBox="0.00 0.00 697.89 226.00" xmlns="http://www.w3.org/2000/svg" xmlns:xlink="http://www.w3.org/1999/xlink">
<g id="graph0" class="graph" transform="scale(1 1) rotate(0) translate(4 222)">
<title>models_diagram</title>
<polygon fill="white" stroke="none" points="-4,4 -4,-222 693.892,-222 693.892,4 -4,4"/>
<!-- _diagram_info -->
<g id="node1" class="node"><title>_diagram_info</title>
<text text-anchor="start" x="74.2043" y="-203.1" font-family="Times,serif" font-size="13.00">Models diagram</text>
<text text-anchor="start" x="74.2043" y="-190.1" font-family="Times,serif" font-size="13.00">Date: Mar 03 2014 &#45; 15:59</text>
<text text-anchor="start" x="74.2043" y="-177.1" font-family="Times,serif" font-size="13.00">Migration version: 20140303210827</text>
<text text-anchor="start" x="74.2043" y="-164.1" font-family="Times,serif" font-size="13.00">Generated by RailRoady 1.1.1</text>
<text text-anchor="start" x="74.2043" y="-151.1" font-family="Times,serif" font-size="13.00">http://railroady.prestonlee.com</text>
</g>
<!-- ComplexResponseDetail -->
<g id="node2" class="node"><title>ComplexResponseDetail</title>
<ellipse fill="none" stroke="black" cx="113.892" cy="-90" rx="98.0544" ry="18"/>
<text text-anchor="middle" x="113.892" y="-85.8" font-family="Times,serif" font-size="14.00">ComplexResponseDetail</text>
</g>
<!-- Detail -->
<g id="node3" class="node"><title>Detail</title>
<ellipse fill="none" stroke="black" cx="50.892" cy="-18" rx="31.5709" ry="18"/>
<text text-anchor="middle" x="50.892" y="-13.8" font-family="Times,serif" font-size="14.00">Detail</text>
</g>
<!-- ComplexResponseDetail&#45;&gt;Detail -->
<g id="edge2" class="edge"><title>ComplexResponseDetail&#45;&gt;Detail</title>
<path fill="none" stroke="#fca6bb" d="M93.0579,-65.851C86.2168,-58.2498 78.6147,-49.803 71.7704,-42.1981"/>
<ellipse fill="none" stroke="#fca6bb" cx="95.9656" cy="-69.0818" rx="4.00002" ry="4.00002"/>
<polygon fill="#fca6bb" stroke="#fca6bb" points="71.4025,-41.7894 68.0576,-31.346 68.0576,-38.0729 64.7128,-34.3564 64.7128,-34.3564 64.7128,-34.3564 68.0576,-38.0729 61.368,-37.3667 71.4025,-41.7894 71.4025,-41.7894"/>
</g>
<!-- Response -->
<g id="node6" class="node"><title>Response</title>
<ellipse fill="none" stroke="black" cx="439.892" cy="-18" rx="44.0058" ry="18"/>
<text text-anchor="middle" x="439.892" y="-13.8" font-family="Times,serif" font-size="14.00">Response</text>
</g>
<!-- ComplexResponseDetail&#45;&gt;Response -->
<g id="edge1" class="edge"><title>ComplexResponseDetail&#45;&gt;Response</title>
<path fill="none" stroke="#af1f54" d="M183.18,-74.1222C246.61,-60.5023 338.711,-40.7259 393.626,-28.9344"/>
<ellipse fill="none" stroke="#af1f54" cx="179.121" cy="-74.9937" rx="4.00001" ry="4.00001"/>
<ellipse fill="#af1f54" stroke="#af1f54" cx="397.869" cy="-28.0233" rx="4.00001" ry="4.00001"/>
</g>
<!-- IntResponseDetail -->
<g id="node4" class="node"><title>IntResponseDetail</title>
<ellipse fill="none" stroke="black" cx="304.892" cy="-90" rx="75.1532" ry="18"/>
<text text-anchor="middle" x="304.892" y="-85.8" font-family="Times,serif" font-size="14.00">IntResponseDetail</text>
</g>
<!-- IntResponseDetail&#45;&gt;Response -->
<g id="edge5" class="edge"><title>IntResponseDetail&#45;&gt;Response</title>
<path fill="none" stroke="#1cc574" d="M342.011,-69.7533C362.165,-59.3029 386.886,-46.4848 406.441,-36.345"/>
<ellipse fill="none" stroke="#1cc574" cx="338.404" cy="-71.6234" rx="4.00002" ry="4.00002"/>
<ellipse fill="#1cc574" stroke="#1cc574" cx="410.112" cy="-34.4418" rx="4.00002" ry="4.00002"/>
</g>
<!-- Question -->
<g id="node5" class="node"><title>Question</title>
<ellipse fill="none" stroke="black" cx="439.892" cy="-90" rx="42.0588" ry="18"/>
<text text-anchor="middle" x="439.892" y="-85.8" font-family="Times,serif" font-size="14.00">Question</text>
</g>
<!-- Question&#45;&gt;Response -->
<g id="edge7" class="edge"><title>Question&#45;&gt;Response</title>
<path fill="none" stroke="#e66efc" d="M439.892,-63.6398C439.892,-58.0629 439.892,-52.1319 439.892,-46.4761"/>
<ellipse fill="none" stroke="#e66efc" cx="439.892" cy="-67.6966" rx="4" ry="4"/>
<polygon fill="#e66efc" stroke="#e66efc" points="439.892,-46.1043 444.392,-36.1043 439.892,-41.1043 439.892,-36.1043 439.892,-36.1043 439.892,-36.1043 439.892,-41.1043 435.392,-36.1044 439.892,-46.1043 439.892,-46.1043"/>
</g>
<!-- StrResponseDetail -->
<g id="node7" class="node"><title>StrResponseDetail</title>
<ellipse fill="none" stroke="black" cx="613.892" cy="-90" rx="75.3984" ry="18"/>
<text text-anchor="middle" x="613.892" y="-85.8" font-family="Times,serif" font-size="14.00">StrResponseDetail</text>
</g>
<!-- StrResponseDetail&#45;&gt;Response -->
<g id="edge10" class="edge"><title>StrResponseDetail&#45;&gt;Response</title>
<path fill="none" stroke="#7cbc02" d="M569.298,-71.0599C540.969,-59.663 504.698,-45.0712 477.768,-34.2374"/>
<ellipse fill="none" stroke="#7cbc02" cx="573.28" cy="-72.6619" rx="4.00001" ry="4.00001"/>
<ellipse fill="#7cbc02" stroke="#7cbc02" cx="473.793" cy="-32.6385" rx="4.00001" ry="4.00001"/>
</g>
<!-- ActiveRecord::Base -->
<g id="node8" class="node"><title>ActiveRecord::Base</title>
<ellipse fill="none" stroke="black" cx="372.892" cy="-181" rx="80.9821" ry="18"/>
<text text-anchor="middle" x="372.892" y="-176.8" font-family="Times,serif" font-size="14.00">ActiveRecord::Base</text>
</g>
<!-- ActiveRecord::Base&#45;&gt;ComplexResponseDetail -->
<g id="edge3" class="edge"><title>ActiveRecord::Base&#45;&gt;ComplexResponseDetail</title>
<path fill="none" stroke="black" d="M336.366,-164.863C319.835,-158.19 299.984,-150.423 281.892,-144 242.407,-129.981 197.07,-115.788 163.452,-105.622"/>
</g>
<!-- ActiveRecord::Base&#45;&gt;Detail -->
<g id="edge4" class="edge"><title>ActiveRecord::Base&#45;&gt;Detail</title>
<path fill="none" stroke="black" d="M339.417,-164.46C322.504,-157.205 301.464,-149.069 281.892,-144 222.228,-128.547 47.5461,-154.323 6.89205,-108 -12.891,-85.4584 14.5454,-52.4435 34.1516,-33.6061"/>
</g>
<!-- ActiveRecord::Base&#45;&gt;IntResponseDetail -->
<g id="edge6" class="edge"><title>ActiveRecord::Base&#45;&gt;IntResponseDetail</title>
<path fill="none" stroke="black" d="M359.781,-162.84C347.663,-146.979 329.764,-123.553 317.732,-107.806"/>
</g>
<!-- ActiveRecord::Base&#45;&gt;Question -->
<g id="edge8" class="edge"><title>ActiveRecord::Base&#45;&gt;Question</title>
<path fill="none" stroke="black" d="M385.81,-162.84C397.827,-146.878 415.611,-123.254 427.466,-107.506"/>
</g>
<!-- ActiveRecord::Base&#45;&gt;Response -->
<g id="edge9" class="edge"><title>ActiveRecord::Base&#45;&gt;Response</title>
<path fill="none" stroke="black" d="M416.726,-165.761C443.323,-154.593 475.093,-136.147 490.892,-108 498.723,-94.0476 496.873,-86.8403 490.892,-72 484.735,-56.7213 471.833,-43.3828 460.547,-33.9088"/>
</g>
<!-- ActiveRecord::Base&#45;&gt;StrResponseDetail -->
<g id="edge11" class="edge"><title>ActiveRecord::Base&#45;&gt;StrResponseDetail</title>
<path fill="none" stroke="black" d="M412.688,-165.303C457.609,-148.714 530.223,-121.899 574.836,-105.423"/>
</g>
</g>
</svg>
