<?xml version="1.0" encoding="UTF-8" standalone="no"?>
<!DOCTYPE svg PUBLIC "-//W3C//DTD SVG 1.1//EN"
 "http://www.w3.org/Graphics/SVG/1.1/DTD/svg11.dtd">
<!-- Generated by graphviz version 2.36.0 (20140111.2315)
 -->
<!-- Title: models_diagram Pages: 1 -->
<svg width="741pt" height="358pt"
 viewBox="0.00 0.00 741.00 358.00" xmlns="http://www.w3.org/2000/svg" xmlns:xlink="http://www.w3.org/1999/xlink">
<g id="graph0" class="graph" transform="scale(1 1) rotate(0) translate(4 354)">
<title>models_diagram</title>
<polygon fill="white" stroke="none" points="-4,4 -4,-354 737,-354 737,4 -4,4"/>
<!-- _diagram_info -->
<g id="node1" class="node"><title>_diagram_info</title>
<text text-anchor="start" x="103.312" y="-335.1" font-family="Times,serif" font-size="13.00">Models diagram</text>
<text text-anchor="start" x="103.312" y="-322.1" font-family="Times,serif" font-size="13.00">Date: Mar 03 2014 &#45; 15:59</text>
<text text-anchor="start" x="103.312" y="-309.1" font-family="Times,serif" font-size="13.00">Migration version: 20140303210827</text>
<text text-anchor="start" x="103.312" y="-296.1" font-family="Times,serif" font-size="13.00">Generated by RailRoady 1.1.1</text>
<text text-anchor="start" x="103.312" y="-283.1" font-family="Times,serif" font-size="13.00">http://railroady.prestonlee.com</text>
</g>
<!-- ComplexResponseDetail -->
<g id="node2" class="node"><title>ComplexResponseDetail</title>
<path fill="none" stroke="black" d="M98.3999,-160C98.3999,-160 229.6,-160 229.6,-160 235.6,-160 241.6,-166 241.6,-172 241.6,-172 241.6,-220 241.6,-220 241.6,-226 235.6,-232 229.6,-232 229.6,-232 98.3999,-232 98.3999,-232 92.3999,-232 86.3999,-226 86.3999,-220 86.3999,-220 86.3999,-172 86.3999,-172 86.3999,-166 92.3999,-160 98.3999,-160"/>
<text text-anchor="middle" x="164" y="-216.8" font-family="Times,serif" font-size="14.00">ComplexResponseDetail</text>
<polyline fill="none" stroke="black" points="86.3999,-210 241.6,-210 "/>
<text text-anchor="start" x="94.3999" y="-194.8" font-family="Times,serif" font-size="14.00">id :integer</text>
<text text-anchor="start" x="94.3999" y="-180.8" font-family="Times,serif" font-size="14.00">created_at :datetime</text>
<text text-anchor="start" x="94.3999" y="-166.8" font-family="Times,serif" font-size="14.00">updated_at :datetime</text>
</g>
<!-- Detail -->
<g id="node3" class="node"><title>Detail</title>
<path fill="none" stroke="black" d="M11.7808,-1C11.7808,-1 210.219,-1 210.219,-1 216.219,-1 222.219,-7 222.219,-13 222.219,-13 222.219,-103 222.219,-103 222.219,-109 216.219,-115 210.219,-115 210.219,-115 11.7808,-115 11.7808,-115 5.78076,-115 -0.219238,-109 -0.219238,-103 -0.219238,-103 -0.219238,-13 -0.219238,-13 -0.219238,-7 5.78076,-1 11.7808,-1"/>
<text text-anchor="middle" x="111" y="-99.8" font-family="Times,serif" font-size="14.00">Detail</text>
<polyline fill="none" stroke="black" points="-0.219238,-93 222.219,-93 "/>
<text text-anchor="start" x="7.78076" y="-77.8" font-family="Times,serif" font-size="14.00">id :integer</text>
<text text-anchor="start" x="7.78076" y="-63.8" font-family="Times,serif" font-size="14.00">created_at :datetime</text>
<text text-anchor="start" x="7.78076" y="-49.8" font-family="Times,serif" font-size="14.00">updated_at :datetime</text>
<text text-anchor="start" x="7.78076" y="-35.8" font-family="Times,serif" font-size="14.00">complex_response_detail_id :integer</text>
<text text-anchor="start" x="7.78076" y="-21.8" font-family="Times,serif" font-size="14.00">response_detail_id :integer</text>
<text text-anchor="start" x="7.78076" y="-7.8" font-family="Times,serif" font-size="14.00">response_detail_type :string</text>
</g>
<!-- ComplexResponseDetail&#45;&gt;Detail -->
<g id="edge2" class="edge"><title>ComplexResponseDetail&#45;&gt;Detail</title>
<path fill="none" stroke="#334f39" d="M147.393,-152.385C143.931,-143.502 140.207,-133.945 136.508,-124.454"/>
<ellipse fill="none" stroke="#334f39" cx="148.899" cy="-156.25" rx="4.00001" ry="4.00001"/>
<polygon fill="#334f39" stroke="#334f39" points="136.46,-124.33 137.021,-113.379 134.644,-119.671 132.828,-115.013 132.828,-115.013 132.828,-115.013 134.644,-119.671 128.636,-116.647 136.46,-124.33 136.46,-124.33"/>
</g>
<!-- Response -->
<g id="node6" class="node"><title>Response</title>
<path fill="none" stroke="black" d="M402.267,-1C402.267,-1 551.733,-1 551.733,-1 557.733,-1 563.733,-7 563.733,-13 563.733,-13 563.733,-103 563.733,-103 563.733,-109 557.733,-115 551.733,-115 551.733,-115 402.267,-115 402.267,-115 396.267,-115 390.267,-109 390.267,-103 390.267,-103 390.267,-13 390.267,-13 390.267,-7 396.267,-1 402.267,-1"/>
<text text-anchor="middle" x="477" y="-99.8" font-family="Times,serif" font-size="14.00">Response</text>
<polyline fill="none" stroke="black" points="390.267,-93 563.733,-93 "/>
<text text-anchor="start" x="398.267" y="-77.8" font-family="Times,serif" font-size="14.00">id :integer</text>
<text text-anchor="start" x="398.267" y="-63.8" font-family="Times,serif" font-size="14.00">response_detail_id :integer</text>
<text text-anchor="start" x="398.267" y="-49.8" font-family="Times,serif" font-size="14.00">response_detail_type :string</text>
<text text-anchor="start" x="398.267" y="-35.8" font-family="Times,serif" font-size="14.00">created_at :datetime</text>
<text text-anchor="start" x="398.267" y="-21.8" font-family="Times,serif" font-size="14.00">updated_at :datetime</text>
<text text-anchor="start" x="398.267" y="-7.8" font-family="Times,serif" font-size="14.00">question_id :integer</text>
</g>
<!-- ComplexResponseDetail&#45;&gt;Response -->
<g id="edge1" class="edge"><title>ComplexResponseDetail&#45;&gt;Response</title>
<path fill="none" stroke="#322191" d="M240.64,-156.32C243.793,-154.843 246.922,-153.398 250,-152 293.077,-132.44 341.512,-112.343 382.544,-95.8596"/>
<ellipse fill="none" stroke="#322191" cx="236.869" cy="-158.105" rx="4.00002" ry="4.00002"/>
<ellipse fill="#322191" stroke="#322191" cx="386.404" cy="-94.3128" rx="4.00001" ry="4.00001"/>
</g>
<!-- IntResponseDetail -->
<g id="node4" class="node"><title>IntResponseDetail</title>
<path fill="none" stroke="black" d="M271.495,-153C271.495,-153 380.505,-153 380.505,-153 386.505,-153 392.505,-159 392.505,-165 392.505,-165 392.505,-227 392.505,-227 392.505,-233 386.505,-239 380.505,-239 380.505,-239 271.495,-239 271.495,-239 265.495,-239 259.495,-233 259.495,-227 259.495,-227 259.495,-165 259.495,-165 259.495,-159 265.495,-153 271.495,-153"/>
<text text-anchor="middle" x="326" y="-223.8" font-family="Times,serif" font-size="14.00">IntResponseDetail</text>
<polyline fill="none" stroke="black" points="259.495,-217 392.505,-217 "/>
<text text-anchor="start" x="267.495" y="-201.8" font-family="Times,serif" font-size="14.00">id :integer</text>
<text text-anchor="start" x="267.495" y="-187.8" font-family="Times,serif" font-size="14.00">created_at :datetime</text>
<text text-anchor="start" x="267.495" y="-173.8" font-family="Times,serif" font-size="14.00">updated_at :datetime</text>
<text text-anchor="start" x="267.495" y="-159.8" font-family="Times,serif" font-size="14.00">value :integer</text>
</g>
<!-- IntResponseDetail&#45;&gt;Response -->
<g id="edge5" class="edge"><title>IntResponseDetail&#45;&gt;Response</title>
<path fill="none" stroke="#8e35ec" d="M378.933,-147.326C388.53,-138.681 398.664,-129.554 408.63,-120.578"/>
<ellipse fill="none" stroke="#8e35ec" cx="375.922" cy="-150.037" rx="4.00002" ry="4.00002"/>
<ellipse fill="#8e35ec" stroke="#8e35ec" cx="411.836" cy="-117.691" rx="4.00002" ry="4.00002"/>
</g>
<!-- Question -->
<g id="node5" class="node"><title>Question</title>
<path fill="none" stroke="black" d="M422.495,-160C422.495,-160 531.505,-160 531.505,-160 537.505,-160 543.505,-166 543.505,-172 543.505,-172 543.505,-220 543.505,-220 543.505,-226 537.505,-232 531.505,-232 531.505,-232 422.495,-232 422.495,-232 416.495,-232 410.495,-226 410.495,-220 410.495,-220 410.495,-172 410.495,-172 410.495,-166 416.495,-160 422.495,-160"/>
<text text-anchor="middle" x="477" y="-216.8" font-family="Times,serif" font-size="14.00">Question</text>
<polyline fill="none" stroke="black" points="410.495,-210 543.505,-210 "/>
<text text-anchor="start" x="418.495" y="-194.8" font-family="Times,serif" font-size="14.00">id :integer</text>
<text text-anchor="start" x="418.495" y="-180.8" font-family="Times,serif" font-size="14.00">created_at :datetime</text>
<text text-anchor="start" x="418.495" y="-166.8" font-family="Times,serif" font-size="14.00">updated_at :datetime</text>
</g>
<!-- Question&#45;&gt;Response -->
<g id="edge7" class="edge"><title>Question&#45;&gt;Response</title>
<path fill="none" stroke="#afeecc" d="M477,-151.707C477,-143.234 477,-134.168 477,-125.146"/>
<ellipse fill="none" stroke="#afeecc" cx="477" cy="-155.977" rx="4" ry="4"/>
<polygon fill="#afeecc" stroke="#afeecc" points="477,-125.013 481.5,-115.013 477,-120.013 477,-115.013 477,-115.013 477,-115.013 477,-120.013 472.5,-115.013 477,-125.013 477,-125.013"/>
</g>
<!-- StrResponseDetail -->
<g id="node7" class="node"><title>StrResponseDetail</title>
<path fill="none" stroke="black" d="M612.495,-153C612.495,-153 721.505,-153 721.505,-153 727.505,-153 733.505,-159 733.505,-165 733.505,-165 733.505,-227 733.505,-227 733.505,-233 727.505,-239 721.505,-239 721.505,-239 612.495,-239 612.495,-239 606.495,-239 600.495,-233 600.495,-227 600.495,-227 600.495,-165 600.495,-165 600.495,-159 606.495,-153 612.495,-153"/>
<text text-anchor="middle" x="667" y="-223.8" font-family="Times,serif" font-size="14.00">StrResponseDetail</text>
<polyline fill="none" stroke="black" points="600.495,-217 733.505,-217 "/>
<text text-anchor="start" x="608.495" y="-201.8" font-family="Times,serif" font-size="14.00">id :integer</text>
<text text-anchor="start" x="608.495" y="-187.8" font-family="Times,serif" font-size="14.00">created_at :datetime</text>
<text text-anchor="start" x="608.495" y="-173.8" font-family="Times,serif" font-size="14.00">updated_at :datetime</text>
<text text-anchor="start" x="608.495" y="-159.8" font-family="Times,serif" font-size="14.00">value :string</text>
</g>
<!-- StrResponseDetail&#45;&gt;Response -->
<g id="edge10" class="edge"><title>StrResponseDetail&#45;&gt;Response</title>
<path fill="none" stroke="#5d275f" d="M601.453,-148.082C588.83,-139.046 575.436,-129.459 562.292,-120.051"/>
<ellipse fill="none" stroke="#5d275f" cx="604.931" cy="-150.572" rx="4.00002" ry="4.00002"/>
<ellipse fill="#5d275f" stroke="#5d275f" cx="558.7" cy="-117.48" rx="4.00002" ry="4.00002"/>
</g>
<!-- ActiveRecord::Base -->
<g id="node8" class="node"><title>ActiveRecord::Base</title>
<ellipse fill="none" stroke="black" cx="402" cy="-313" rx="80.9821" ry="18"/>
<text text-anchor="middle" x="402" y="-308.8" font-family="Times,serif" font-size="14.00">ActiveRecord::Base</text>
</g>
<!-- ActiveRecord::Base&#45;&gt;ComplexResponseDetail -->
<g id="edge3" class="edge"><title>ActiveRecord::Base&#45;&gt;ComplexResponseDetail</title>
<path fill="none" stroke="black" d="M368.693,-296.472C337.832,-282.025 290.694,-259.809 250,-240 244.747,-237.443 239.323,-234.781 233.872,-232.091"/>
</g>
<!-- ActiveRecord::Base&#45;&gt;Detail -->
<g id="edge4" class="edge"><title>ActiveRecord::Base&#45;&gt;Detail</title>
<path fill="none" stroke="black" d="M368.047,-296.467C351.196,-289.303 330.35,-281.245 311,-276 260.22,-262.237 111.257,-279.931 77,-240 47.6456,-205.784 60.9411,-154.351 78.81,-115.046"/>
</g>
<!-- ActiveRecord::Base&#45;&gt;IntResponseDetail -->
<g id="edge6" class="edge"><title>ActiveRecord::Base&#45;&gt;IntResponseDetail</title>
<path fill="none" stroke="black" d="M390.786,-295.031C381.124,-280.411 366.761,-258.678 354.013,-239.388"/>
</g>
<!-- ActiveRecord::Base&#45;&gt;Question -->
<g id="edge8" class="edge"><title>ActiveRecord::Base&#45;&gt;Question</title>
<path fill="none" stroke="black" d="M413.067,-295.031C423.824,-278.537 440.486,-252.989 454.103,-232.109"/>
</g>
<!-- ActiveRecord::Base&#45;&gt;Response -->
<g id="edge9" class="edge"><title>ActiveRecord::Base&#45;&gt;Response</title>
<path fill="none" stroke="black" d="M459.57,-300.288C492.744,-290.269 531.77,-272.15 552,-240 572.83,-206.897 565.018,-188.881 552,-152 547.409,-138.993 540.142,-126.468 531.899,-115.053"/>
</g>
<!-- ActiveRecord::Base&#45;&gt;StrResponseDetail -->
<g id="edge11" class="edge"><title>ActiveRecord::Base&#45;&gt;StrResponseDetail</title>
<path fill="none" stroke="black" d="M443.125,-297.451C480.79,-283.764 537.838,-262.118 586,-240 590.63,-237.874 595.368,-235.607 600.115,-233.269"/>
</g>
</g>
</svg>
